<?xml version="1.0" encoding="UTF-8"?>
<svg xmlns="http://www.w3.org/2000/svg" xmlns:xlink="http://www.w3.org/1999/xlink" width="16px" height="16px" viewBox="0 0 16 16" version="1.1">
<g id="surface1">
<path style=" stroke:none;fill-rule:nonzero;fill:rgb(1.960784%,34.901961%,78.823529%);fill-opacity:1;" d="M 16 8 C 16 12.417969 12.417969 16 8 16 C 3.582031 16 0 12.417969 0 8 C 0 3.582031 3.582031 0 8 0 C 12.417969 0 16 3.582031 16 8 Z M 16 8 "/>
<path style=" stroke:none;fill-rule:nonzero;fill:rgb(100%,100%,100%);fill-opacity:1;" d="M 9.195312 6.015625 C 9.195312 5.6875 9.304688 5.382812 9.519531 5.101562 C 9.738281 4.820312 10.296875 4.679688 11.203125 4.679688 L 11.203125 8.09375 L 11.046875 8.59375 C 10.976562 8.832031 10.875 9.058594 10.753906 9.273438 C 10.640625 9.46875 10.5 9.644531 10.335938 9.796875 C 10.175781 9.945312 9.996094 10.070312 9.800781 10.164062 C 9.589844 10.261719 9.367188 10.332031 9.140625 10.375 C 9.175781 10.175781 9.195312 9.972656 9.195312 9.769531 Z M 6 5.066406 L 6.402344 5.066406 L 6.402344 5.453125 L 6 5.453125 Z M 6.402344 5.65625 L 6.804688 5.65625 L 6.804688 6.042969 L 6.402344 6.042969 Z M 6 6.148438 L 6.402344 6.148438 L 6.402344 6.535156 L 6 6.535156 Z M 5.597656 6.730469 L 6 6.730469 L 6 7.125 L 5.597656 7.125 Z M 4.796875 4.671875 L 5.199219 4.671875 L 5.199219 5.066406 L 4.796875 5.066406 Z M 6.804688 9.769531 C 6.804688 10.109375 6.867188 10.402344 6.988281 10.652344 C 7.113281 10.902344 7.25 11.109375 7.402344 11.273438 C 7.550781 11.441406 7.6875 11.566406 7.8125 11.644531 L 8 11.765625 C 7.496094 11.765625 7.046875 11.695312 6.652344 11.554688 C 6.253906 11.414062 5.917969 11.21875 5.644531 10.964844 C 5.375 10.71875 5.160156 10.414062 5.015625 10.074219 C 4.871094 9.734375 4.796875 9.363281 4.796875 8.964844 L 4.796875 5.75 L 5.199219 5.75 L 5.199219 7.898438 L 5.597656 7.898438 L 5.597656 7.511719 L 6 7.511719 L 6 8.378906 L 6.402344 8.378906 L 6.402344 6.921875 L 6.804688 6.921875 Z M 8.28125 10.582031 C 8.652344 10.59375 8.992188 10.566406 9.300781 10.5 C 9.597656 10.433594 9.882812 10.316406 10.136719 10.15625 C 10.386719 9.992188 10.601562 9.78125 10.773438 9.539062 C 10.953125 9.285156 11.09375 8.984375 11.203125 8.632812 L 11.203125 8.96875 C 11.203125 9.347656 11.136719 9.699219 11.007812 10.023438 C 10.882812 10.347656 10.6875 10.640625 10.441406 10.882812 C 10.195312 11.128906 9.890625 11.332031 9.535156 11.484375 C 9.175781 11.636719 8.773438 11.726562 8.316406 11.753906 L 8.078125 11.628906 C 8.058594 11.613281 7.902344 11.492188 7.613281 11.265625 C 7.320312 11.035156 7.121094 10.691406 7.015625 10.226562 C 7.1875 10.332031 7.375 10.410156 7.566406 10.46875 C 7.777344 10.53125 8.015625 10.566406 8.28125 10.582031 Z M 5.597656 5.460938 L 5.992188 5.460938 L 5.992188 5.847656 L 5.597656 5.847656 Z M 5.597656 5.460938 "/>
</g>
</svg>
