<svg xmlns="http://www.w3.org/2000/svg" xmlns:xlink="http://www.w3.org/1999/xlink" width="100" height="100">
<svg id="icon" fill="#000000" viewBox="0 0 503.61 503.61"><path d="M167.87,344.131H41.969c-4.636,0-8.393,3.758-8.393,8.393v50.361c0,4.636,3.758,8.393,8.393,8.393h8.393v8.393 c0,4.636,3.758,8.393,8.393,8.393h16.787v8.393c0,4.636,3.758,8.393,8.393,8.393h41.967c4.636,0,8.393-3.758,8.393-8.393v-8.393 h16.787c4.636,0,8.393-3.758,8.393-8.393v-8.393h8.393c4.636,0,8.393-3.758,8.393-8.393v-50.361 C176.264,347.889,172.506,344.131,167.87,344.131z M159.477,394.492h-8.393c-4.636,0-8.393,3.758-8.393,8.393v8.393h-16.787 c-4.636,0-8.393,3.758-8.393,8.393v8.393H92.33v-8.393c0-4.636-3.758-8.393-8.393-8.393H67.149v-8.393 c0-4.636-3.758-8.393-8.393-8.393h-8.393v-33.574h8.393v8.393c0,4.636,3.758,8.393,8.393,8.393c4.636,0,8.393-3.758,8.393-8.393 v-8.393h8.393v8.393c0,4.636,3.758,8.393,8.393,8.393s8.393-3.758,8.393-8.393v-8.393h8.393v8.393 c0,4.636,3.758,8.393,8.393,8.393c4.636,0,8.393-3.758,8.393-8.393v-8.393h8.393v8.393c0,4.636,3.758,8.393,8.393,8.393 s8.393-3.758,8.393-8.393v-8.393h8.393V394.492z"></path> <path d="M327.346,344.131H201.444c-4.636,0-8.393,3.758-8.393,8.393v50.361c0,4.636,3.758,8.393,8.393,8.393h8.393v8.393 c0,4.636,3.758,8.393,8.393,8.393h16.787v8.393c0,4.636,3.758,8.393,8.393,8.393h41.967c4.636,0,8.393-3.758,8.393-8.393v-8.393 h16.787c4.636,0,8.393-3.758,8.393-8.393v-8.393h8.393c4.636,0,8.393-3.758,8.393-8.393v-50.361 C335.739,347.889,331.981,344.131,327.346,344.131z M318.952,394.492h-8.393c-4.636,0-8.393,3.758-8.393,8.393v8.393h-16.787 c-4.636,0-8.393,3.758-8.393,8.393v8.393h-25.18v-8.393c0-4.636-3.758-8.393-8.393-8.393h-16.787v-8.393 c0-4.636-3.758-8.393-8.393-8.393h-8.393v-33.574h8.393v8.393c0,4.636,3.758,8.393,8.393,8.393c4.636,0,8.393-3.758,8.393-8.393 v-8.393h8.393v8.393c0,4.636,3.758,8.393,8.393,8.393c4.636,0,8.393-3.758,8.393-8.393v-8.393h8.393v8.393 c0,4.636,3.758,8.393,8.393,8.393c4.636,0,8.393-3.758,8.393-8.393v-8.393h8.393v8.393c0,4.636,3.758,8.393,8.393,8.393 s8.393-3.758,8.393-8.393v-8.393h8.393V394.492z"></path> <path d="M428.067,377.705c-18.544,0-33.574,15.03-33.574,33.574c0,18.543,15.03,33.574,33.574,33.574s33.574-15.03,33.574-33.574 C461.641,392.735,446.611,377.705,428.067,377.705z M428.067,428.066c-9.272,0-16.787-7.515-16.787-16.787 c0-9.272,7.515-16.787,16.787-16.787s16.787,7.514,16.787,16.787C444.854,420.551,437.34,428.066,428.067,428.066z"></path> <path d="M428.067,402.885c-4.642,0-8.393,3.76-8.393,8.393s3.752,8.393,8.393,8.393s8.393-3.76,8.393-8.393 S432.709,402.885,428.067,402.885z"></path> <path d="M478.428,310.557h-16.787V209.725c0-4.636-3.758-8.393-8.393-8.393h-0.343L444.847,8.044 C444.659,3.548,440.96,0,436.461,0h-16.787c-4.5,0-8.199,3.548-8.386,8.044l-8.058,193.288h-0.343 c-4.636,0-8.393,3.758-8.393,8.393v100.832H360.92c-0.011,0-0.022,0.002-0.034,0.002H25.182c-13.904,0-25.18,11.272-25.18,25.18 v117.508c0,13.902,11.278,25.18,25.18,25.18h16.787v16.789c0,4.636,3.758,8.393,8.393,8.393h67.148 c4.636,0,8.393-3.758,8.393-8.393v-16.789H360.92c0.011,0,0.022-0.002,0.034-0.002h16.753v16.79c0,4.636,3.758,8.393,8.393,8.393 h67.148c4.636,0,8.393-3.758,8.393-8.393v-16.79h16.787c13.904,0,25.18-11.272,25.18-25.18V335.738 C503.608,321.836,492.33,310.557,478.428,310.557z M109.116,486.823H58.756v-8.393h50.361V486.823z M444.854,486.823h-50.361 v-8.393h50.361V486.823z M411.28,218.12h33.574v16.785H411.28V218.12z M444.854,318.951v15.476c0,5.36-4.341,9.703-9.694,9.703 h-14.185c-5.353,0-9.694-4.342-9.694-9.703v-15.476v-33.685h33.574V318.951z M444.854,251.692v16.787H411.28v-16.787H444.854z M427.725,16.787h0.685l7.694,184.545h-16.072L427.725,16.787z M16.789,453.248V335.739c0-4.636,3.759-8.393,8.393-8.393h327.344 v134.295H25.182C20.551,461.641,16.789,457.878,16.789,453.248z M486.821,453.246c0,4.636-3.759,8.393-8.393,8.393H369.313 V327.344h25.18v7.082v0.01c0,14.624,11.858,26.481,26.481,26.481h14.185c14.624,0,26.481-11.858,26.481-26.481v-0.01v-7.082 h16.787c4.631,0,8.393,3.763,8.393,8.393V453.246z"></path></svg>
</svg>