<svg xmlns="http://www.w3.org/2000/svg" xmlns:xlink="http://www.w3.org/1999/xlink" width="32px" height="32px">
<svg id="icon" viewBox="0 0 200 200" style="shape-rendering:geometricPrecision; text-rendering:geometricPrecision; image-rendering:optimizeQuality; fill-rule:evenodd; clip-rule:evenodd" xmlns:xlink="http://www.w3.org/1999/xlink">
<g><circle cx="100" cy="100" r="100" style="fill:#ffffff"></circle></g>
<g><path style="opacity:1" fill="#000000" d="M 89.5,48.5 C 116.687,45.5538 133.52,57.2205 140,83.5C 140.667,104.167 140.667,124.833 140,145.5C 138.534,147.325 136.701,147.825 134.5,147C 131.984,144.317 129.317,141.817 126.5,139.5C 122.137,143.699 117.637,147.699 113,151.5C 108.363,147.699 103.863,143.699 99.5,139.5C 95.1371,143.699 90.6371,147.699 86,151.5C 81.3629,147.699 76.8629,143.699 72.5,139.5C 69.6826,141.817 67.0159,144.317 64.5,147C 62.8876,147.72 61.3876,147.554 60,146.5C 59.052,123.125 59.3853,99.7914 61,76.5C 65.7518,62.2475 75.2518,52.9142 89.5,48.5 Z"/></g>
<g><path style="opacity:1" fill="#ffffff" d="M 79.5,81.5 C 89.5032,81.0016 93.6698,85.6683 92,95.5C 89.0812,101.025 84.5812,102.858 78.5,101C 70.2873,94.0964 70.6207,87.5964 79.5,81.5 Z"/></g>
<g><path style="opacity:1" fill="#ffffff" d="M 112.5,81.5 C 124.134,81.1228 128.301,86.4561 125,97.5C 121.604,101.203 117.437,102.369 112.5,101C 106.975,98.0812 105.142,93.5812 107,87.5C 108.36,84.9774 110.193,82.9774 112.5,81.5 Z"/></g>
</svg>
</svg>