<svg xmlns="http://www.w3.org/2000/svg" xmlns:xlink="http://www.w3.org/1999/xlink" viewBox="0 0 32 32" width="16px" height="16px">
<svg id="icon" width="287.000000pt" height="287.000000pt" viewBox="0 0 287.000000 287.000000" preserveAspectRatio="xMidYMid meet">
<g transform="translate(0.000000,287.000000) scale(0.100000,-0.100000)"
fill="#000000" stroke="none">
<path d="M1622 2839 c-314 -29 -599 -178 -809 -422 -85 -99 -200 -320 -205
-394 -1 -7 -5 -13 -10 -13 -4 0 -7 -3 -6 -7 2 -8 -9 -76 -19 -118 -2 -11 -7
-51 -9 -88 -2 -37 -5 -71 -5 -75 -1 -4 -1 -24 0 -44 2 -60 16 -44 18 19 2 73
9 126 24 170 6 19 12 40 13 46 20 91 123 263 215 354 186 187 422 286 686 286
222 1 449 -74 601 -199 57 -46 154 -143 154 -154 0 -4 3 -10 8 -12 16 -7 62
-78 102 -158 23 -47 52 -96 64 -108 51 -57 165 -85 239 -60 90 31 157 119 157
205 0 54 -35 141 -89 222 -22 34 -41 64 -41 66 0 8 -62 77 -135 150 -244 244
-596 367 -953 334z"/>
<path d="M231 2258 c-35 -14 -63 -33 -89 -64 -20 -25 -37 -48 -38 -52 0 -4 -7
-23 -16 -43 -60 -138 -85 -406 -53 -578 15 -82 55 -212 79 -256 5 -11 9 -23 8
-27 -1 -3 5 -12 13 -18 8 -7 15 -17 15 -23 0 -5 25 -48 56 -94 270 -406 786
-600 1282 -483 81 19 236 78 279 106 12 7 39 23 60 35 84 47 236 176 290 249
17 22 5 13 -33 -23 -142 -141 -321 -229 -549 -272 -40 -7 -220 -7 -270 0 -149
23 -346 100 -428 169 -14 11 -40 32 -58 46 -65 50 -189 194 -189 219 0 6 -4
11 -9 11 -13 0 -81 155 -103 239 -26 98 -32 270 -12 375 8 42 29 114 45 159
35 95 38 148 12 209 -48 108 -176 159 -292 116z"/>
<path d="M2277 1992 c75 -74 152 -180 193 -267 13 -27 24 -52 25 -55 0 -3 8
-27 17 -55 9 -27 22 -73 28 -102 21 -94 14 -318 -11 -365 -5 -10 -7 -18 -4
-18 7 0 -38 -116 -70 -180 -123 -243 -354 -419 -635 -485 -101 -24 -284 -28
-385 -8 -44 8 -120 28 -170 45 -107 36 -171 34 -239 -6 -119 -70 -142 -235
-46 -335 45 -47 226 -108 370 -125 64 -8 262 -8 305 -1 264 46 436 119 616
262 73 58 245 257 247 287 0 5 4 12 10 15 20 14 90 175 116 271 31 117 50 339
31 370 -3 5 -1 12 5 15 7 4 8 11 2 18 -6 7 -13 35 -16 62 -16 123 -81 295
-147 391 -16 23 -29 47 -29 52 0 6 -3 12 -7 14 -5 2 -26 26 -48 53 -52 65
-107 120 -175 174 -51 41 -50 39 17 -27z"/>
</g>
</svg>
</svg>